<svg xmlns="http://www.w3.org/2000/svg" fill="none" viewBox="0 0 81 80">
    <path d="M37.097 11.105c-3.644-.58-6.943 2.236-6.943 5.926v49.938c0 3.69 3.299 6.506 6.943 5.926l38.256-6.09a6 6 0 0 0 5.057-5.925V23.12a6 6 0 0 0-5.057-5.925l-38.256-6.09Zm-14.374 6.288c1.261-1.255 3.41-.361 3.41 1.418v46.378c0 1.78-2.149 2.673-3.41 1.418l-.852-.848a6 6 0 0 1-1.768-4.253V22.494a6 6 0 0 1 1.768-4.253l.852-.848Zm-6.641 8.334c0-1.596-1.776-2.549-3.105-1.667l-.242.16a6 6 0 0 0-2.684 5v25.56a6 6 0 0 0 2.684 5l.242.16c1.329.882 3.105-.071 3.105-1.666V25.727ZM2.925 30.06c1.33-.882 3.106.071 3.106 1.667v20.547c0 1.595-1.776 2.548-3.106 1.666l-.241-.16a6 6 0 0 1-2.684-5V35.22a6 6 0 0 1 2.684-5l.241-.16Z"/>
  <style>
        path { fill: #000; }
        @media (prefers-color-scheme: dark) {
            path { fill: #FFF; }
        }
    </style>
</svg>

